<svg xmlns="http://www.w3.org/2000/svg" xmlns:xlink="http://www.w3.org/1999/xlink" width="512" height="512" viewBox="0 0 512 512">
  <defs>
    <rect id="ddlogo-a" width="512" height="512" x="0" y="0"/>
  </defs>
  <g fill="none" fill-rule="evenodd">
    <mask id="ddlogo-b" fill="#fff">
      <use xlink:href="#ddlogo-a"/>
    </mask>
    <use fill="#3A2AAF" xlink:href="#ddlogo-a"/>
    <path fill="#523BF4" d="M530.837782,413.678977 C479.612594,358.723852 416.166667,361.538575 340.5,422.123145 C227,513 191.315555,386 102.00181,398.296982 C12.6880645,410.593964 16.5637209,503.502981 -43,450.899981 C-82.7091473,415.831315 -68.3758139,460.197988 2.98427949e-13,584 L530.837782,584 L530.837782,413.678977 Z" mask="url(#ddlogo-b)"/>
    <path fill="#452CF3" d="M396.720794,413.208158 C345.495606,358.253033 282.049679,361.067756 206.383013,421.652326 C92.8830126,512.529181 57.1985672,385.529181 -32.1151778,397.826163 C-121.428923,410.123145 -117.553267,503.032162 -177.116987,450.429162 C-216.826135,415.360496 -202.492801,459.727169 -134.116987,583.529181 L396.720794,583.529181 L396.720794,413.208158 Z" mask="url(#ddlogo-b)"/>
    <path fill="#6B56F9" d="M543.903628,450.052107 C479.294631,389.657375 328.752456,389.657375 234,450.052107 C139.247544,510.446838 90.0771969,412.975695 31.3235633,425.526053 C-7.84552576,433.892959 -46.6200469,455.48984 -85,490.316697 C-166.789724,593.000869 -176.10913,649.994266 -112.958218,661.296888 C-49.8073059,672.59951 81.5069171,664.683103 280.984451,637.547665 L543.903628,610.076341 C586.976293,543.656672 586.976293,490.315261 543.903628,450.052107 Z" mask="url(#ddlogo-b)"/>
    <path fill="#FFF" fill-rule="nonzero" d="M267.803034,159.357502 L267.803034,294.138852 C267.803034,315.783587 249.899307,334.763285 227.96871,335.273118 C216.819741,335.51955 206.053487,331.256023 198.169107,323.472227 C190.284728,315.688431 185.96792,305.061315 186.220741,294.057742 C186.725567,272.424594 205.967671,254.754239 227.898269,254.754239 L232.594328,254.754239 C242.320186,254.754239 250.204551,246.972646 250.204551,237.373563 L250.204551,237.373563 C250.204551,227.774481 242.320186,219.992887 232.594328,219.992887 L228.215253,219.992887 C186.16204,219.992887 151.176397,253.189979 151,294.683446 C150.943966,314.675552 158.965759,333.864857 173.28907,348.001465 C187.612381,362.138073 207.055119,370.055303 227.311261,370 C269.364474,369.825902 303,335.238357 303,293.791238 L303,159.380676 C303,149.781594 295.115635,142 285.389777,142 L285.389777,142 C275.68225,142.012766 267.815969,149.776511 267.803034,159.357502 Z" mask="url(#ddlogo-b)"/>
    <rect width="43" height="43" x="319" y="218" fill="#FFF" fill-rule="nonzero" mask="url(#ddlogo-b)" rx="21.5"/>
  </g>
</svg>
